HIERARCHY
ROOT Hips
{
	OFFSET 0.000000 0.000000 0.000000
	CHANNELS 6 Xposition Yposition Zposition Zrotation Yrotation Xrotation 
	JOINT LHipJoint
	{
		OFFSET 0.000000 0.000000 0.000000
		CHANNELS 3 Zrotation Yrotation Xrotation
		JOINT LeftUpLeg
		{
			OFFSET 1.363060 -1.794630 0.839290
			CHANNELS 3 Zrotation Yrotation Xrotation
			JOINT LeftLeg
			{
				OFFSET 2.448110 -6.726130 0.000000
				CHANNELS 3 Zrotation Yrotation Xrotation
				JOINT LeftFoot
				{
					OFFSET 2.562200 -7.039590 0.000000
					CHANNELS 3 Zrotation Yrotation Xrotation
					JOINT LeftToeBase
					{
						OFFSET 0.157640 -0.433110 2.322550
						CHANNELS 3 Zrotation Yrotation Xrotation
						End Site
						{
							OFFSET 0.000000 0.000000 0.000000
						}
					}
				}
			}
		}
	}
	JOINT RHipJoint
	{
		OFFSET 0.000000 0.000000 0.000000
		CHANNELS 3 Zrotation Yrotation Xrotation
		JOINT RightUpLeg
		{
			OFFSET -1.305520 -1.794630 0.839290
			CHANNELS 3 Zrotation Yrotation Xrotation
			JOINT RightLeg
			{
				OFFSET -2.542530 -6.985550 0.000000
				CHANNELS 3 Zrotation Yrotation Xrotation
				JOINT RightFoot
				{
					OFFSET -2.568260 -7.056230 0.000000
					CHANNELS 3 Zrotation Yrotation Xrotation
					JOINT RightToeBase
					{
						OFFSET -0.164730 -0.452590 2.363150
						CHANNELS 3 Zrotation Yrotation Xrotation
						End Site
						{
							OFFSET 0.000000 0.000000 0.000000
						}
					}
				}
			}
		}
	}
	JOINT LowerBack
	{
		OFFSET 0.000000 0.000000 0.000000
		CHANNELS 3 Zrotation Yrotation Xrotation
		JOINT Spine
		{
			OFFSET 0.028270 2.035590 -0.193380
			CHANNELS 3 Zrotation Yrotation Xrotation
			JOINT Spine1
			{
				OFFSET 0.056720 2.048850 -0.042750
				CHANNELS 3 Zrotation Yrotation Xrotation
				JOINT Neck
				{
					OFFSET 0.000000 0.000000 0.000000
					CHANNELS 3 Zrotation Yrotation Xrotation
					JOINT Neck1
					{
						OFFSET -0.054170 1.746240 0.172020
						CHANNELS 3 Zrotation Yrotation Xrotation
						JOINT Head
						{
							OFFSET 0.104070 1.761360 -0.123970
							CHANNELS 3 Zrotation Yrotation Xrotation
							End Site
							{
								OFFSET 0.000000 0.000000 0.000000
							}
						}
					}
				}
				JOINT LeftShoulder
				{
					OFFSET 0.000000 0.000000 0.000000
					CHANNELS 3 Zrotation Yrotation Xrotation
					JOINT LeftArm
					{
						OFFSET 3.362410 1.200890 -0.311210
						CHANNELS 3 Zrotation Yrotation Xrotation
						JOINT LeftForeArm
						{
							OFFSET 4.983000 -0.000000 -0.000000
							CHANNELS 3 Zrotation Yrotation Xrotation
							JOINT LeftHand
							{
								OFFSET 3.483560 -0.000000 -0.000000
								CHANNELS 3 Zrotation Yrotation Xrotation
								JOINT LeftFingerBase
								{
									OFFSET 0.000000 0.000000 0.000000
									CHANNELS 3 Zrotation Yrotation Xrotation
									JOINT LeftHandIndex1
									{
										OFFSET 0.715260 -0.000000 -0.000000
										CHANNELS 3 Zrotation Yrotation Xrotation
										End Site
										{
											OFFSET 0.000000 0.000000 0.000000
										}
									}
								}
								JOINT LThumb
								{
									OFFSET 0.000000 0.000000 0.000000
									CHANNELS 3 Zrotation Yrotation Xrotation
									End Site
									{
										OFFSET 0.000000 0.000000 0.000000
									}
								}
							}
						}
					}
				}
				JOINT RightShoulder
				{
					OFFSET 0.000000 0.000000 0.000000
					CHANNELS 3 Zrotation Yrotation Xrotation
					JOINT RightArm
					{
						OFFSET -3.136600 1.374050 -0.404650
						CHANNELS 3 Zrotation Yrotation Xrotation
						JOINT RightForeArm
						{
							OFFSET -5.241900 -0.000000 -0.000000
							CHANNELS 3 Zrotation Yrotation Xrotation
							JOINT RightHand
							{
								OFFSET -3.444170 -0.000000 -0.000000
								CHANNELS 3 Zrotation Yrotation Xrotation
								JOINT RightFingerBase
								{
									OFFSET 0.000000 0.000000 0.000000
									CHANNELS 3 Zrotation Yrotation Xrotation
									JOINT RightHandIndex1
									{
										OFFSET -0.622530 -0.000000 -0.000000
										CHANNELS 3 Zrotation Yrotation Xrotation
										End Site
										{
											OFFSET 0.000000 0.000000 0.000000
										}
									}
								}
								JOINT RThumb
								{
									OFFSET 0.000000 0.000000 0.000000
									CHANNELS 3 Zrotation Yrotation Xrotation
									End Site
									{
										OFFSET 0.000000 0.000000 0.000000
									}
								}
							}
						}
					}
				}
			}
		}
	}
}
MOTION
Frames: 5
Frame Time: 0.008333
-2.746703 18.062682 -0.624548 -173.222432 80.595556 -159.153042 -9.772569 1.246709 4.571491 -15.645309 -7.451956 -29.028138 -1.996486 -0.286168 12.595689 0.718601 6.316652 6.712745 2.100100 0.000000 -32.836001 9.823526 -5.007527 -0.153488 7.502418 -12.025823 1.862379 2.256108 -1.002391 6.464159 0.498389 8.574828 24.399330 4.174000 0.000000 -68.195700 1.231144 4.880041 -5.838018 -1.349585 4.431902 -4.525837 -8.139263 4.602705 -1.262473 8.554938 -3.795709 -6.396019 -2.561770 -0.221754 0.371847 0.000000 0.000000 0.000000 6.188549 23.914040 -0.730790 -55.800656 26.239566 13.404052 -179.844856 -67.166522 179.955448 30.050148 -24.232253 -6.900144 -0.606729 0.679363 0.000000 0.000000 0.000000 0.000000 0.000000 0.000000 0.000000 0.460841 6.581363 -4.342191 86.464822 22.674170 35.909047 179.780303 62.020863 179.916092 -7.678573 26.591431 -1.963177 0.174257 -1.483459 -0.000000 0.000000 0.000000 0.000000 0.000000 0.000000 0.000000 
-2.539760 18.082325 -0.673535 -173.753068 79.737883 -159.944768 -9.811019 1.358082 4.509846 -16.429314 -6.896319 -28.386339 -2.135975 -0.287642 11.216606 0.491348 5.224043 8.760917 2.011600 0.000000 -35.538000 9.804952 -5.081741 -0.221067 7.479236 -12.246131 2.339781 2.149885 -1.097243 7.364241 0.400207 7.648974 24.483050 3.737400 -0.000000 -67.842800 1.271794 4.844668 -5.753938 -1.332844 4.399706 -4.495544 -8.110593 4.570924 -1.192591 8.497446 -3.832568 -6.471362 -2.521288 -0.217722 0.352859 0.000000 0.000000 0.000000 6.387861 24.271163 -0.712629 -55.682630 26.710761 12.698923 -179.849972 -66.467757 179.953124 30.073096 -24.281229 -6.923275 -0.610764 0.688920 0.000000 0.000000 0.000000 0.000000 0.000000 0.000000 0.000000 0.217865 6.559969 -4.442308 86.987557 22.679470 36.283203 179.790720 62.212446 179.916817 -7.705342 26.509589 -1.963857 0.176134 -1.476665 -0.000000 0.000000 0.000000 0.000000 0.000000 0.000000 0.000000 
-2.335085 18.090669 -0.723348 -174.201875 78.842699 -160.676084 -9.846361 1.470668 4.431773 -17.218020 -6.307316 -27.799108 -2.243572 -0.267007 10.335984 0.329162 4.360726 10.348203 1.882300 0.000000 -37.490100 9.778736 -5.140213 -0.301831 7.469688 -12.499949 2.694558 2.041255 -1.201558 8.601397 0.305065 6.607102 24.091579 3.187100 -0.000001 -67.558700 1.331279 4.782053 -5.642825 -1.310681 4.340423 -4.457102 -8.083881 4.512826 -1.118496 8.447687 -3.915373 -6.563959 -2.489152 -0.214024 0.328696 0.000000 0.000000 0.000000 6.534729 24.598895 -0.697875 -55.611554 27.103983 12.007845 -179.857136 -65.756222 179.950429 30.091233 -24.321015 -6.943087 -0.615325 0.699704 0.000000 0.000000 0.000000 0.000000 0.000000 0.000000 0.000000 0.034576 6.488698 -4.533074 87.496574 22.671463 36.618607 179.791006 62.439162 179.917769 -7.723521 26.438135 -1.962955 0.177952 -1.469474 0.000000 0.000000 0.000000 0.000000 0.000000 0.000000 0.000000 
-2.132574 18.087946 -0.773679 -174.627025 77.912215 -161.404899 -9.872827 1.583551 4.348974 -17.984273 -5.746122 -27.227658 -2.316546 -0.231362 9.892101 0.229086 3.775866 11.448934 1.766301 0.000000 -38.650100 9.754133 -5.182664 -0.407491 7.437646 -12.845256 2.932492 1.931589 -1.314947 10.137459 0.212672 5.529571 23.303538 2.593200 -0.000000 -67.353600 1.398332 4.696199 -5.503190 -1.285878 4.259109 -4.411157 -8.060610 4.433666 -1.042831 8.404229 -4.043220 -6.671555 -2.465858 -0.210734 0.299899 0.000000 0.000000 0.000000 6.629821 24.893168 -0.688493 -55.585845 27.395474 11.345912 -179.865970 -65.041049 179.947400 30.095172 -24.350277 -6.956981 -0.620305 0.711703 0.000000 0.000000 0.000000 0.000000 0.000000 0.000000 0.000000 -0.090677 6.370036 -4.612868 87.990619 22.632296 36.903211 179.783726 62.695779 179.918896 -7.729275 26.370132 -1.959166 0.179433 -1.461808 0.000000 0.000000 0.000000 0.000000 0.000000 0.000000 0.000000 
-1.932034 18.074193 -0.824231 -175.066765 76.951942 -162.167515 -9.886522 1.694905 4.271543 -18.703789 -5.264187 -26.639205 -2.355955 -0.186189 9.822304 0.183745 3.480726 12.062097 1.697600 0.000000 -39.004100 9.740128 -5.209319 -0.547407 7.344145 -13.334105 3.054439 1.822283 -1.437055 11.939742 0.123493 4.490847 22.197263 2.017600 0.000000 -67.192100 1.461228 4.591821 -5.334746 -1.261191 4.161546 -4.358159 -8.040965 4.339463 -0.966511 8.365162 -4.213625 -6.792680 -2.451316 -0.207870 0.266799 0.000000 0.000000 0.000000 6.682197 25.154818 -0.685838 -55.611005 27.558089 10.731082 -179.876473 -64.333201 179.944020 30.078333 -24.370754 -6.963858 -0.625582 0.725049 0.000000 0.000000 0.000000 0.000000 0.000000 0.000000 0.000000 -0.162806 6.206943 -4.681104 88.468811 22.546238 37.126162 179.772357 62.979215 179.920098 -7.724597 26.299127 -1.952292 0.180471 -1.453515 0.000000 0.000000 0.000000 0.000000 0.000000 0.000000 0.000000 
